<?xml version="1.0" standalone="no"?>
<!DOCTYPE svg PUBLIC "-//W3C//DTD SVG 20010904//EN"
 "http://www.w3.org/TR/2001/REC-SVG-20010904/DTD/svg10.dtd">
<svg version="1.0" xmlns="http://www.w3.org/2000/svg"
 width="500.000000pt" height="500.000000pt" viewBox="0 0 500.000000 500.000000"
 preserveAspectRatio="xMidYMid meet">

<g transform="translate(0.000000,500.000000) scale(0.100000,-0.100000)"
fill="#000000" stroke="none">
<path d="M2380 4166 c-163 -46 -259 -155 -260 -297 0 -150 106 -259 319 -328
109 -35 141 -60 141 -107 0 -43 -27 -73 -75 -84 -51 -12 -94 -5 -223 32 -56
16 -110 27 -119 24 -13 -5 -15 -17 -10 -64 13 -147 91 -205 292 -219 230 -15
400 98 435 290 17 91 -9 175 -72 233 -50 46 -77 60 -214 114 -143 55 -174 78
-174 126 0 75 86 92 265 53 53 -11 110 -19 128 -17 29 3 32 6 35 40 8 97 -45
174 -138 202 -65 19 -263 20 -330 2z"/>
<path d="M1220 4142 c-79 -40 -102 -144 -103 -467 0 -294 19 -437 66 -490 28
-32 122 -52 170 -36 55 19 62 39 62 201 1 80 4 151 8 158 23 37 68 -11 134
-142 93 -186 127 -216 244 -215 41 0 90 5 109 12 30 10 35 17 38 49 3 39 -18
89 -88 203 -58 94 -98 177 -111 228 -15 63 -4 93 99 265 101 170 109 206 52
234 -39 20 -152 25 -194 8 -45 -17 -100 -83 -155 -188 -52 -98 -88 -142 -117
-142 -16 0 -16 -3 -18 168 -1 128 -2 135 -25 153 -31 25 -122 26 -171 1z"/>
<path d="M3128 4144 c-67 -28 -86 -106 -95 -399 -4 -131 -2 -225 6 -273 29
-187 160 -313 354 -344 197 -30 396 68 473 234 l29 63 3 242 c5 351 -16 451
-99 480 -48 17 -130 16 -156 -2 -41 -28 -45 -67 -41 -397 3 -342 3 -343 -55
-378 -37 -23 -109 -26 -146 -7 -14 6 -34 27 -44 45 -18 30 -19 54 -18 330 1
320 -5 376 -39 404 -28 23 -119 23 -172 2z"/>
<path d="M3250 2340 c-37 -9 -60 -33 -60 -62 0 -22 -34 -45 -80 -53 -19 -3
-111 -7 -205 -10 -249 -5 -295 -25 -295 -129 0 -71 13 -83 97 -91 38 -3 80
-11 94 -16 45 -17 65 -93 32 -120 -11 -10 -47 -14 -124 -14 -93 0 -112 -3
-135 -21 -55 -41 -51 -123 7 -151 48 -23 297 -33 831 -33 635 0 719 8 749 74
15 32 -2 86 -34 110 -22 16 -48 21 -139 25 -62 3 -119 10 -125 14 -18 12 -16
58 5 83 27 35 77 54 136 54 82 0 86 3 86 70 0 113 -51 140 -267 141 -254 1
-323 18 -323 79 0 15 -7 33 -14 40 -18 14 -189 22 -236 10z m244 -339 c57 -14
64 -25 41 -67 -10 -20 -33 -47 -49 -61 -29 -24 -35 -25 -126 -21 -109 5 -163
25 -185 69 -23 43 -19 66 13 77 34 13 254 15 306 3z"/>
<path d="M1240 2323 c-68 -4 -90 -15 -90 -42 0 -37 -42 -60 -128 -70 -121 -13
-152 -41 -154 -138 -1 -72 15 -82 141 -85 101 -3 106 -4 109 -25 2 -13 2 -23
0 -24 -2 0 -40 -4 -86 -8 -144 -14 -157 -41 -157 -321 0 -226 7 -279 41 -320
24 -28 29 -30 101 -29 80 1 112 -14 100 -45 -5 -13 -25 -16 -109 -16 -137 0
-152 -9 -146 -91 7 -102 34 -122 181 -135 77 -6 92 -18 102 -74 9 -53 28 -62
146 -68 114 -5 139 4 139 51 0 52 24 77 73 77 49 0 82 -19 91 -53 10 -41 42
-47 272 -47 320 0 496 24 544 75 15 16 23 41 27 82 8 84 -4 93 -113 93 -97 0
-124 10 -124 45 0 43 30 61 108 68 112 9 132 29 132 131 0 74 -16 86 -111 86
-80 0 -119 16 -119 49 0 36 -20 41 -155 41 -134 0 -155 -6 -155 -40 0 -9 -9
-25 -19 -35 -17 -14 -34 -17 -100 -14 -106 5 -127 25 -122 117 1 32 14 27 36
-14 36 -67 61 -67 215 -1 126 55 174 54 323 -3 78 -30 120 -40 150 -38 40 3
43 6 70 57 17 34 27 71 27 97 0 49 -20 67 -103 98 -26 10 -52 27 -58 38 -11
21 -12 19 62 158 31 59 34 73 34 145 -1 90 -21 140 -66 162 -67 32 -455 56
-560 34 -79 -17 -94 -36 -94 -123 0 -73 4 -80 60 -113 15 -9 13 -14 -23 -37
-68 -45 -66 -66 13 -159 55 -65 58 -91 11 -113 -70 -33 -91 -19 -101 64 -14
124 -19 130 -123 130 -85 0 -106 8 -100 36 3 15 13 19 58 21 139 7 160 23 160
125 0 92 -16 108 -104 108 -89 0 -116 12 -116 49 0 20 -7 34 -19 41 -19 10
-36 10 -171 3z m854 -273 c14 -5 26 -14 26 -19 0 -22 -63 -81 -85 -81 -44 0
-108 71 -90 100 8 13 116 13 149 0z m-959 -335 c0 -25 -4 -30 -28 -33 -32 -4
-44 16 -27 48 18 33 55 23 55 -15z m320 0 c0 -25 -4 -30 -25 -30 -21 0 -26 5
-28 33 -3 31 -2 33 25 30 24 -3 28 -8 28 -33z m-331 -201 c16 -6 21 -30 10
-58 -9 -24 -43 -19 -56 8 -19 43 3 67 46 50z m334 -33 c5 -30 -10 -45 -37 -36
-15 5 -21 15 -21 36 0 27 3 30 28 27 20 -2 28 -9 30 -27z m197 -251 c30 -15
59 -20 125 -20 47 0 91 -4 99 -9 20 -13 16 -73 -5 -88 -26 -19 -154 -17 -182
3 -12 8 -22 21 -22 27 -1 35 -18 42 -120 43 -78 1 -105 5 -117 17 -13 13 -14
19 -3 31 20 25 174 22 225 -4z"/>
<path d="M2960 1570 c-213 -26 -248 -77 -236 -335 7 -145 26 -277 45 -314 21
-39 69 -55 179 -59 92 -4 105 -2 117 14 13 18 31 19 278 18 228 -1 267 -3 288
-17 17 -13 46 -17 111 -17 111 0 158 17 181 66 28 59 49 210 51 364 2 204 -14
232 -144 266 -54 14 -126 17 -435 20 -203 1 -399 -1 -435 -6z m684 -203 c25
-40 -56 -52 -334 -51 -207 1 -260 9 -260 38 0 32 34 36 309 33 250 -2 275 -4
285 -20z m-27 -223 c34 -9 37 -33 5 -47 -39 -17 -518 -17 -549 1 -13 7 -23 17
-23 23 0 5 10 14 23 19 24 10 509 13 544 4z"/>
</g>
</svg>
